<?xml version="1.0" encoding="UTF-8" standalone="no"?>
<!-- Created with Inkscape (http://www.inkscape.org/) -->

<svg
   xmlns:dc="http://purl.org/dc/elements/1.1/"
   xmlns:cc="http://creativecommons.org/ns#"
   xmlns:rdf="http://www.w3.org/1999/02/22-rdf-syntax-ns#"
   xmlns:svg="http://www.w3.org/2000/svg"
   xmlns="http://www.w3.org/2000/svg"
   xmlns:sodipodi="http://sodipodi.sourceforge.net/DTD/sodipodi-0.dtd"
   xmlns:inkscape="http://www.inkscape.org/namespaces/inkscape"
   width="600"
   height="368"
   viewBox="0 0 600.00001 368.00001"
   id="svg2"
   version="1.1"
   inkscape:version="0.91 r13725"
   sodipodi:docname="logo.svg"
   inkscape:export-filename="/home/kevin/sites/competitive-programming-guide/static/images/logo.png"
   inkscape:export-xdpi="90"
   inkscape:export-ydpi="90">
  <defs
     id="defs4">
    <clipPath
       id="clipPath1016">
      <path
         d="M 766.11,3738.8 L 753.384,3738.8 L 753.384,3752.27 L 766.11,3752.27 L 766.11,3738.8"
         inkscape:connector-curvature="0"
         id="path1018" />
    </clipPath>
    <clipPath
       id="clipPath712">
      <path
         d="M 3711.8,1621 C 3713.45,1623.4 3714.99,1626 3716.44,1628.76 L 3717.05,1628.76 C 3718.39,1628.76 3719.72,1628.82 3721.04,1628.95 C 3718.22,1625.74 3715.15,1623.06 3711.8,1621 M 3129.04,2203.77 C 3131.1,2207.12 3133.78,2210.19 3136.99,2213.01 C 3136.84,2211.49 3136.78,2209.96 3136.8,2208.41 C 3134.04,2206.96 3131.44,2205.42 3129.04,2203.77"
         inkscape:connector-curvature="0"
         id="path714" />
    </clipPath>
    <clipPath
       id="clipPath680">
      <path
         d="M 3752.3,753.38 L 3738.84,753.38 L 3738.84,766.11 L 3752.3,766.103 L 3752.3,753.383"
         inkscape:connector-curvature="0"
         id="path682" />
    </clipPath>
    <clipPath
       id="clipPath204">
      <path
         d="M 0,4505.7 L 0,0 L 4505.7,0 L 4505.7,4505.7 L 0,4505.7 Z"
         inkscape:connector-curvature="0"
         id="path206" />
    </clipPath>
    <clipPath
       id="clipPath178">
      <path
         d="M 0,4505.7 L 0,0 L 4505.7,0 L 4505.7,4505.7 L 0,4505.7 Z"
         inkscape:connector-curvature="0"
         id="path180" />
    </clipPath>
    <clipPath
       id="clipPath114">
      <path
         d="M 3217.1,1932.8 C 3237.09,2061.44 3162.21,2073.22 3121.12,2164.55 C 3115.22,2177.66 3113.74,2190.11 3117.94,2201.32 C 3116.32,2196.97 3115.55,2192.44 3115.55,2187.76 C 3115.56,2180.36 3117.52,2172.58 3121.13,2164.55 C 3157.52,2083.66 3220.42,2065.17 3220.43,1972.61 C 3220.43,1960.67 3219.38,1947.5 3217.1,1932.8"
         inkscape:connector-curvature="0"
         id="path116" />
    </clipPath>
    <clipPath
       id="clipPath98">
      <path
         d="M 3175.4,1839.8 C 3196.32,1864.48 3211.24,1895.46 3217.06,1932.78 C 3211.26,1895.53 3196.4,1864.58 3175.53,1839.91 C 3175.49,1839.88 3175.44,1839.83 3175.4,1839.8"
         inkscape:connector-curvature="0"
         id="path100" />
    </clipPath>
  </defs>
  <sodipodi:namedview
     id="base"
     pagecolor="#ffffff"
     bordercolor="#666666"
     borderopacity="1.0"
     inkscape:pageopacity="0.0"
     inkscape:pageshadow="2"
     inkscape:zoom="0.87166665"
     inkscape:cx="328.6807"
     inkscape:cy="244.80306"
     inkscape:document-units="px"
     inkscape:current-layer="layer1"
     showgrid="false"
     units="px"
     fit-margin-top="0"
     fit-margin-left="0"
     fit-margin-right="0"
     fit-margin-bottom="0"
     inkscape:window-width="1600"
     inkscape:window-height="846"
     inkscape:window-x="0"
     inkscape:window-y="0"
     inkscape:window-maximized="1" />
  <metadata
     id="metadata7">
    <rdf:RDF>
      <cc:Work
         rdf:about="">
        <dc:format>image/svg+xml</dc:format>
        <dc:type
           rdf:resource="http://purl.org/dc/dcmitype/StillImage" />
        <dc:title></dc:title>
      </cc:Work>
    </rdf:RDF>
  </metadata>
  <g
     inkscape:label="Layer 1"
     inkscape:groupmode="layer"
     id="layer1"
     transform="translate(-20.586417,-665.79361)">
    <g
       id="g4584"
       transform="matrix(0.9444197,0,0,0.94449576,36.1442,35.879938)">
      <path
         inkscape:connector-curvature="0"
         id="rect4543"
         d="M 235.74745,765.42589 C 223.99042,765.42589 214.52541,774.89094 214.52541,786.6479 L 214.52541,909.6597 L 214.52541,966.99126 L 214.52541,1012.5715 C 214.52541,1024.3285 223.99042,1033.7936 235.74745,1033.7936 L 366.61657,1033.7936 C 378.3736,1033.7936 387.8386,1024.3285 387.8386,1012.5715 L 387.8386,966.99126 L 387.8386,909.6597 L 387.8386,786.6479 C 387.8386,774.89094 378.3736,765.42589 366.61657,765.42589 L 235.74745,765.42589 Z M 299.75477,787.41886 C 300.66577,787.41886 301.57051,787.4477 301.87075,787.50487 L 302.31912,787.50487 L 302.31912,805.10145 L 302.31912,822.69811 L 301.83727,822.70733 C 301.39609,822.78952 300.14005,822.79918 299.10091,822.7575 C 297.40719,822.78449 297.27547,822.74356 297.19079,822.39345 C 297.13727,822.17187 297.11537,814.23137 297.14207,804.74779 L 297.19047,787.50487 L 297.63916,787.50487 C 297.93949,787.44776 298.84386,787.41886 299.75477,787.41886 Z M 327.17174,792.93057 C 327.94732,792.94683 331.58784,794.48832 331.58784,794.81894 C 331.58784,794.97935 328.77789,802.27251 325.34346,811.02629 C 321.42673,821.00945 319.9429,824.75688 319.26633,826.15705 C 319.25999,826.17315 319.0809,826.62937 319.07946,826.63299 C 319.05056,826.70755 318.99495,826.76036 318.91225,826.7929 C 318.81082,826.93078 318.73725,826.97573 318.66739,826.98218 C 318.42994,827.00416 317.40798,826.68463 316.39631,826.27203 C 315.3846,825.85951 314.47504,825.39205 314.37495,825.23339 C 314.23405,825.00997 315.60726,821.34196 320.46592,808.96594 C 324.19354,799.47109 325.79944,795.44647 326.53653,793.8639 C 326.55137,793.82678 326.57155,793.77563 326.58624,793.73882 C 326.65954,793.55562 326.72804,793.41428 326.81113,793.31053 C 326.95398,793.04999 327.04433,792.94267 327.10576,792.93373 C 327.12459,792.93098 327.1467,792.93007 327.17174,792.93057 Z M 273.03796,793.51813 C 273.20351,793.51589 273.28557,793.59077 273.40549,793.71366 C 273.75794,794.07478 286.48759,823.28566 286.61882,824.03448 C 286.72064,824.61539 286.60187,824.7011 284.33463,825.68205 C 282.25523,826.58173 282.18765,826.59867 281.94573,826.27926 C 281.79927,826.08593 278.83508,819.27088 270.82145,800.70371 C 269.63057,797.94453 268.69464,795.58657 268.74175,795.46382 C 268.78885,795.34108 269.7839,794.82172 270.95306,794.3098 C 272.25408,793.74018 272.76206,793.52186 273.03796,793.51813 Z M 354.32241,808.85264 C 354.7732,808.91613 357.5848,811.95517 357.5848,812.37892 C 357.5848,812.83169 332.02236,836.2271 331.52769,836.2271 C 331.51349,836.2271 331.49776,836.22475 331.4814,836.22156 L 331.41509,836.26508 L 331.29839,836.14315 C 330.97657,835.95948 330.4454,835.46184 329.68597,834.62993 C 328.88402,833.75145 328.22764,832.88481 328.22764,832.70392 C 328.22764,832.66567 328.39394,832.4784 328.67219,832.19168 C 328.72756,832.12325 328.79157,832.05381 328.86734,831.97959 C 328.91045,831.93741 329.03486,831.82134 329.11777,831.74301 C 333.17601,827.72186 350.08493,812.27653 353.65537,809.34416 C 353.8942,809.13199 354.05843,808.98809 354.07646,808.97835 C 354.10159,808.96476 354.12796,808.95672 354.15522,808.95143 C 354.24074,808.89055 354.30466,808.85013 354.32241,808.85264 Z M 248.14215,810.12267 C 248.22598,810.1277 248.30926,810.149 248.37153,810.18556 C 248.58406,810.31035 272.75591,831.71308 273.30944,832.26666 C 273.45061,832.40778 273.51655,832.66055 273.45591,832.82795 C 273.31484,833.2175 270.41609,836.40396 270.20282,836.40396 C 270.1145,836.40396 269.42601,835.86741 268.67268,835.21159 C 264.65214,831.71189 245.32698,814.55777 245.05628,814.24832 C 244.88179,814.0488 244.78332,813.76978 244.83761,813.62831 C 244.97307,813.27517 247.61594,810.28905 247.90862,810.1583 C 247.9736,810.12929 248.05829,810.11771 248.14215,810.12267 Z M 367.48563,830.83218 C 367.64509,830.88275 368.22767,831.85127 368.78023,832.98443 C 369.61024,834.68627 369.7465,835.09133 369.56502,835.31459 C 369.40421,835.51225 340.39749,850.03559 340.19716,850.01864 C 340.17955,850.01722 340.07564,849.9575 339.96611,849.88605 C 339.64727,849.67799 337.74595,845.76074 337.84218,845.50999 C 337.97337,845.16808 367.14473,830.72391 367.48563,830.83218 Z M 235.04316,832.15956 C 235.57347,832.15956 262.96904,845.92226 263.09565,846.25235 C 263.24007,846.62856 261.20873,850.62707 260.84775,850.67704 C 260.70183,850.69719 254.31535,847.57336 246.65551,843.73529 C 234.9075,837.84875 232.72857,836.69965 232.72857,836.38944 C 232.72857,836.18718 233.17312,835.1529 233.71642,834.09077 C 234.45394,832.6489 234.79002,832.15956 235.04316,832.15956 Z M 274.23238,862.93048 C 277.6279,862.93861 282.0679,862.97819 287.59634,863.04888 C 289.80388,863.07715 291.45528,863.10079 292.73361,863.12495 C 294.5945,863.14944 296.01318,863.17744 296.17355,863.21024 C 296.23989,863.22383 296.30012,863.24764 296.35526,863.27515 C 296.66682,863.32044 296.74835,863.3773 296.74835,863.45302 C 296.74835,863.61085 294.6872,865.72656 292.16785,868.15482 C 289.64845,870.58298 287.5793,872.6113 287.56972,872.66204 C 287.56017,872.71278 290.74313,873.78388 294.64308,875.04225 C 298.54297,876.30061 301.86554,877.4279 302.02652,877.54757 C 302.28626,877.74054 302.28918,877.79304 302.05381,878.01176 C 301.90792,878.14737 298.94918,879.56473 295.47892,881.16156 C 292.0087,882.75841 289.22331,884.11171 289.28916,884.16874 C 289.3551,884.22568 292.55253,885.17133 296.39463,886.27018 C 300.23667,887.36904 303.51948,888.33992 303.68969,888.42765 C 303.85994,888.51536 303.99917,888.69559 303.99917,888.82835 C 303.99917,888.96102 302.93069,890.00033 301.6245,891.13769 C 300.31831,892.27513 299.20417,893.32417 299.14855,893.46891 C 299.09306,893.61367 299.04739,898.56906 299.04739,904.48098 L 299.04739,915.22973 L 298.1189,915.34127 C 296.37557,915.55068 291.67915,915.47545 291.48045,915.23493 C 291.38001,915.11333 290.69113,910.79983 289.94963,905.64945 C 289.20812,900.49917 288.58419,896.27564 288.56312,896.26398 C 288.54208,896.25234 287.36327,895.67368 285.94353,894.97803 C 275.45692,889.83931 268.72513,881.149 266.42266,869.77756 C 265.99493,867.66505 265.58547,863.60415 265.75464,863.15254 C 265.81529,862.99059 268.57321,862.91689 274.23238,862.93048 Z M 324.70381,863.10625 C 330.21939,863.11296 334.66706,863.14752 334.84502,863.21577 C 334.87099,863.22576 334.8949,863.24295 334.91723,863.2645 C 335.14312,863.29947 335.2257,863.34149 335.24569,863.39365 C 335.30595,863.55064 335.2604,864.56531 335.14451,865.64848 C 334.31507,873.40205 331.32886,880.85304 326.8574,886.3272 C 323.93137,889.90935 319.23419,893.35066 314.72313,895.2167 C 313.97634,895.52557 313.45245,895.85817 313.36085,896.08158 C 313.279,896.28128 312.6855,900.54311 312.04207,905.55243 C 311.39864,910.56165 310.79974,914.83927 310.71119,915.05807 C 310.55165,915.45239 310.51793,915.456 306.95657,915.456 C 304.39717,915.456 303.30162,915.39469 303.15053,915.24356 C 302.99029,915.08339 302.93806,912.50971 302.93806,904.74516 L 302.93806,894.45925 L 303.77814,893.68344 C 304.24014,893.25674 305.95119,891.76146 307.5804,890.36085 C 309.20962,888.96035 310.54267,887.75111 310.54267,887.67355 C 310.54267,887.59606 310.08507,887.36435 309.52577,887.15863 C 301.90126,884.354 299.84325,883.51653 299.84325,883.21983 C 299.84325,882.97872 301.36794,882.20081 306.38667,879.8808 C 309.98556,878.21714 312.9635,876.82651 313.00404,876.7907 C 313.04458,876.75499 313.04273,876.69091 313.00026,876.6484 C 312.95773,876.60588 309.10471,875.41293 304.43785,873.99739 C 299.771,872.58196 295.77344,871.34513 295.55461,871.24894 C 295.33573,871.15275 295.15665,870.96265 295.15665,870.82652 C 295.15665,870.69042 296.87109,868.89808 298.96621,866.84362 L 302.7754,863.10835 L 318.95581,863.10835 C 319.06463,863.10835 319.10683,863.10867 319.21419,863.10867 C 321.08164,863.10532 322.94937,863.10415 324.70381,863.10625 Z M 256.54669,863.10969 C 257.41125,863.10943 258.07576,863.11439 258.61296,863.12495 C 260.21533,863.12997 260.70214,863.18491 260.74034,863.3139 C 260.77882,863.44397 260.93557,864.63725 261.08884,865.96598 C 261.74127,871.6219 263.325,876.92883 265.80884,881.78367 C 269.58514,889.16454 275.74622,894.88528 283.30772,898.03107 C 283.93997,898.29414 284.55359,898.60193 284.6714,898.71497 C 284.79715,898.83573 285.43372,902.95661 286.2133,908.69913 C 286.93991,914.05154 287.58079,918.50358 287.64368,918.63793 C 287.9857,918.68405 288.84281,918.72221 290.06083,918.75257 C 292.29684,918.79316 295.98634,918.81614 300.83039,918.81614 L 306.23088,918.81614 C 310.10026,918.78226 313.2382,918.71525 313.99435,918.61545 L 314.07688,918.41822 C 314.16829,918.19942 314.85019,913.76321 315.59221,908.56027 C 316.3342,903.35723 316.97795,899.04086 317.0229,898.96824 C 317.06779,898.89545 318.03309,898.3947 319.16791,897.85529 C 321.78673,896.61053 324.59652,894.73868 327.07811,892.586 C 335.07342,885.6506 339.25405,876.35982 339.944,863.9926 L 339.98823,863.19674 L 340.76227,863.18743 C 341.29854,863.15078 342.27596,863.14096 343.52693,863.1543 L 343.96177,863.14911 C 347.00911,863.11253 348.28443,863.1668 349.43412,863.38224 C 356.67672,864.73939 362.2462,870.06698 364.07918,877.39175 C 364.15914,877.71128 364.21794,878.22024 364.26297,879.55644 C 364.27272,879.63786 364.28442,879.71334 364.2937,879.79653 C 364.46941,881.37215 364.52199,913.65965 364.45327,933.82288 C 364.44586,945.00092 364.39772,950.03414 364.29817,950.73347 C 363.22204,958.29523 357.38484,964.50279 349.89181,966.05451 C 349.76137,966.08151 349.61638,966.10566 349.45281,966.1284 L 348.83069,966.30039 L 345.29612,966.30183 C 340.06425,966.37705 328.23316,966.37914 299.48951,966.37227 C 276.57601,966.36673 264.18229,966.35039 257.35008,966.30183 C 253.81182,966.29462 251.29682,966.28615 251.20939,966.27591 C 251.02634,966.25436 250.84308,966.22869 250.65986,966.20095 C 250.04658,966.17594 249.68257,966.14769 249.52929,966.11488 C 244.63787,965.06895 240.53438,962.32612 237.90453,958.34564 C 236.85028,956.7499 235.86718,954.63897 235.35022,952.85981 L 234.9392,951.44505 L 234.93264,946.46701 C 234.87734,941.29374 234.86361,930.9327 234.88842,913.86436 L 234.88872,913.57695 C 234.86302,893.97696 234.8645,885.13014 234.93575,881.25241 L 234.9392,878.75956 L 235.06283,878.31089 C 235.08226,878.13822 235.10262,877.99029 235.12573,877.87531 C 236.52824,870.89647 241.60254,865.52519 248.61399,863.59812 C 249.53812,863.34418 250.23179,863.25594 252.62698,863.19883 C 253.73963,863.13585 255.0176,863.11028 256.54669,863.10969 Z M 288.1711,923.50267 L 288.11861,924.81244 C 288.08972,925.53283 288.10723,926.22964 288.15762,926.36098 C 288.19106,926.4481 288.69548,926.50169 290.09398,926.53298 C 292.37506,926.55957 296.32092,926.57039 300.9848,926.5547 C 301.03989,926.55453 301.06498,926.55453 301.12053,926.55436 L 301.15611,926.55436 L 313.99119,926.50908 L 313.99119,925.00582 L 313.99119,923.50267 L 301.08116,923.50267 L 288.1711,923.50267 Z M 288.1711,930.75348 L 288.11861,932.06333 C 288.08972,932.78373 288.10723,933.48045 288.15762,933.61179 C 288.23362,933.8098 290.46106,933.84282 301.20893,933.80526 L 314.16807,933.75997 L 314.16807,932.25672 L 314.16807,930.75348 L 301.16961,930.75348 L 288.1711,930.75348 Z M 288.1711,937.65072 L 288.12377,938.74564 L 288.11893,938.87277 C 288.10638,939.20999 288.10418,939.53212 288.10823,939.80844 C 288.11541,940.0701 288.13215,940.26567 288.15726,940.33108 C 288.23381,940.53041 290.43457,940.56329 301.20893,940.52555 L 314.16807,940.48027 L 314.16807,939.06549 L 314.16807,937.65072 L 301.16961,937.65072 L 288.1711,937.65072 Z M 296.6599,944.54787 L 296.60704,945.76818 C 296.57792,946.43941 296.59607,947.09724 296.64714,947.23033 C 296.72269,947.42724 297.50473,947.46347 300.85593,947.42473 L 304.97187,947.37743 L 304.97187,945.96265 L 304.97187,944.54787 L 300.81589,944.54787 L 296.6599,944.54787 Z"
         style="opacity:1;fill:#fcca1f;fill-opacity:1;stroke:none;stroke-width:1;stroke-miterlimit:4;stroke-dasharray:none;stroke-dashoffset:0;stroke-opacity:1" />
      <path
         inkscape:connector-curvature="0"
         id="rect4477"
         d="M 429.6864,689.69465 C 417.9294,689.69465 408.46435,699.15965 408.46435,710.91664 L 408.46435,732.18982 L 408.46435,743.84567 L 408.46435,948.30387 L 408.46435,966.99126 L 408.46435,1012.5715 C 408.46435,1024.3285 417.9294,1033.7936 429.6864,1033.7936 L 560.55558,1033.7936 C 572.31263,1033.7936 581.77759,1024.3285 581.77759,1012.5715 L 581.77759,966.99126 L 581.77759,909.6597 L 581.77759,743.84567 L 581.77759,732.18982 L 581.77759,710.91664 C 581.77759,699.15965 572.31263,689.69465 560.55558,689.69465 L 429.6864,689.69465 Z M 493.84746,732.60808 C 495.25997,732.61301 496.70098,732.6675 498.17129,732.77144 C 510.08389,733.61395 521.57481,739.14324 528.63132,747.42828 C 538.29612,758.77573 540.18741,773.47322 534.32402,791.67017 C 531.08112,801.73457 525.70767,810.52159 518.35783,817.77871 L 515.9824,820.12369 L 518.26279,820.01071 C 524.65511,819.69356 528.58872,821.83383 529.74041,826.25542 C 530.48384,829.10945 529.51356,832.73628 527.54117,834.47586 C 525.76067,836.04629 523.8538,836.64003 520.63126,836.6278 C 517.22081,836.61479 513.08349,835.65036 507.47212,833.56025 C 506.16698,833.074 505.05252,832.67624 504.99556,832.67624 C 504.93871,832.67624 506.25821,835.4096 507.92775,838.75037 C 509.85737,842.61151 510.92234,844.93099 510.85097,845.11692 C 510.74858,845.38369 509.95918,845.40952 501.89069,845.40952 L 493.04263,845.40952 L 493.04263,845.77802 C 493.04263,845.98072 493.20843,846.79645 493.41087,847.5908 C 494.83645,853.18397 498.84898,858.74772 503.95693,862.21335 L 505.24053,863.08419 L 524.82904,863.13559 C 544.23749,863.18659 544.42996,863.19052 545.74955,863.56566 C 548.13135,864.24285 549.99404,865.05926 551.58147,866.12104 C 555.07387,868.45706 557.62088,871.72881 558.91455,875.54106 C 559.9429,878.57155 559.89208,876.53729 559.89208,914.73092 C 559.89208,945.81934 559.8603,950.05685 559.61675,951.34071 C 558.18639,958.8807 552.35913,964.69734 544.82654,966.10358 C 543.52239,966.34703 539.11018,966.37269 505.70228,966.33218 C 478.49749,966.29923 468.02966,966.23247 467.98275,966.09174 C 467.94707,965.98474 468.81608,965.51426 469.91363,965.04589 C 490.59651,956.22014 508.96472,944.33228 519.09104,933.21839 C 528.64866,922.72869 533.01251,912.1995 532.15801,901.69035 C 531.12515,888.98912 523.1641,877.16868 507.65353,865.30691 L 505.3752,863.56465 L 502.52628,863.60784 C 500.95948,863.63174 499.66095,863.66804 499.64032,863.68859 C 499.61977,863.70923 500.50545,864.3761 501.60851,865.17046 C 507.00417,869.05617 513.75424,875.36 517.28111,879.80685 C 528.60741,894.0874 529.93328,907.2073 521.45825,921.13797 C 515.04706,931.67622 502.75591,942.20197 486.11611,951.4042 C 476.96715,956.46392 466.99413,960.84258 455.19669,964.97956 L 451.21756,966.37503 L 448.83012,966.36053 C 447.44603,966.35214 445.92234,966.2354 445.20467,966.08277 C 441.33759,965.26059 438.33362,963.63229 435.59503,960.87403 C 433.36196,958.625 431.74008,955.75804 430.8235,952.44016 L 430.34926,950.72374 L 430.34926,914.91164 C 430.34926,880.67416 430.36359,879.03791 430.67671,877.70196 C 431.58875,873.81046 433.29432,870.81168 436.11796,868.13476 C 438.34603,866.02242 440.84894,864.61981 444.07415,863.67618 L 445.73523,863.1902 L 471.77641,863.13803 C 486.0991,863.10927 497.81763,863.04267 497.81763,862.99018 C 497.81763,862.93777 497.559,862.68182 497.24283,862.42134 C 494.47057,860.13691 492.13515,857.20296 490.5077,853.96047 C 489.62889,852.20974 488.50009,848.85915 488.15651,846.98079 L 487.86912,845.40952 L 482.60057,845.40952 C 477.40223,845.40952 476.77242,845.36692 476.77242,845.0168 C 476.77242,844.91893 477.72745,842.62862 478.89465,839.92713 C 480.06186,837.22565 481.0168,834.93552 481.0168,834.8379 C 481.0168,834.74019 480.22348,834.9679 479.25385,835.34393 C 478.2843,835.71989 476.71145,836.22499 475.75866,836.46652 C 466.42189,838.83323 458.05601,837.32151 455.86336,832.87148 C 455.54165,832.21852 455.46197,831.75946 455.46197,830.55408 C 455.46197,829.18183 455.51985,828.92974 456.12517,827.66198 C 456.61162,826.64321 457.10637,825.95722 457.98208,825.08696 C 459.42864,823.64937 460.6139,822.9529 462.71387,822.30673 C 464.19722,821.85027 464.51926,821.81697 467.48781,821.8121 C 469.85642,821.80824 471.07223,821.88749 472.23857,822.12231 C 473.10064,822.29582 473.83793,822.4061 473.87686,822.3672 C 473.91578,822.32819 472.97165,821.41224 471.77887,820.33166 C 465.9354,815.03831 460.97862,808.423 457.5075,801.2854 C 454.31334,794.71723 452.38604,787.90188 451.45626,779.8865 C 451.12015,776.98947 451.17055,770.11393 451.5471,767.50698 C 453.30892,755.3088 458.84489,746.11836 468.21453,739.83647 C 475.47453,734.96905 483.95975,732.57369 493.84746,732.60808 Z M 493.66162,737.68769 C 488.40206,737.69532 484.3701,738.30421 480.03066,739.74667 C 467.56858,743.88922 459.47903,753.02297 457.07435,765.66664 C 456.29448,769.76717 456.23165,777.41594 456.93998,782.00871 C 458.53891,792.37595 461.93456,800.57071 467.93268,808.53622 C 472.84338,815.05768 478.78413,820.2878 486.72647,825.08176 C 488.36717,826.0721 489.75016,826.98747 489.79955,827.1162 C 489.84903,827.24492 488.68553,830.15305 487.2138,833.57886 C 485.74218,837.00459 484.5789,839.91414 484.6288,840.04421 C 484.70294,840.23751 486.35537,840.28087 493.64576,840.28087 C 499.09319,840.28087 502.6121,840.21554 502.67539,840.11298 C 502.73251,840.02056 501.59071,837.56839 500.13771,834.66379 L 497.49602,829.38243 L 495.49025,828.50438 C 494.00572,827.85445 493.48476,827.54382 493.48476,827.30899 C 493.48476,827.06143 494.2558,826.68506 496.99417,825.59576 C 502.62828,823.35452 506.53345,821.10506 510.99296,817.53248 C 519.70869,810.55004 526.65851,799.90642 529.91593,788.55216 C 531.58339,782.74002 532.28589,778.63406 532.42738,773.87085 C 532.62278,767.29128 531.65559,762.56781 529.0237,757.24967 C 523.82998,746.7548 513.08317,739.76285 499.38921,737.96918 C 497.98082,737.78473 495.93548,737.68441 493.66162,737.68769 Z M 519.5028,825.13871 C 517.70854,825.13216 515.52895,825.37378 513.10204,825.87377 C 510.25622,826.46004 506.81708,827.42465 506.80449,827.64018 C 506.77941,828.0698 513.34019,830.32405 516.56096,830.99244 C 519.23546,831.54744 522.30644,831.5934 523.40488,831.09467 C 523.87467,830.8814 524.25542,830.54494 524.44771,830.1731 C 524.85244,829.39056 524.86528,827.47513 524.47087,826.72556 C 523.92499,825.68809 522.1253,825.14843 519.5028,825.13871 Z M 467.45288,826.86855 C 466.06368,826.85362 464.86067,826.98587 463.9356,827.26891 C 462.4067,827.73662 460.87291,829.09193 460.5903,830.22458 C 460.16233,831.9401 465.40548,832.86409 471.37849,832.12568 C 474.22698,831.77363 479.42518,830.09108 479.42518,829.5213 C 479.42518,829.2989 475.94331,828.1909 473.54008,827.64847 C 471.33314,827.15041 469.2391,826.88776 467.45288,826.86855 Z"
         style="opacity:1;fill:#b42e1c;fill-opacity:1;stroke:none;stroke-width:1;stroke-miterlimit:4;stroke-dasharray:none;stroke-dashoffset:0;stroke-opacity:1" />
      <path
         inkscape:connector-curvature="0"
         id="rect4530"
         d="M 41.808452,840.77306 C 30.051464,840.77306 20.586417,850.23813 20.586417,861.99506 L 20.586417,1012.5715 C 20.586417,1024.3285 30.051464,1033.7936 41.808452,1033.7936 L 172.67762,1033.7936 C 184.43461,1033.7936 193.89967,1024.3285 193.89967,1012.5715 L 193.89967,861.99506 C 193.89967,850.23813 184.43461,840.77306 172.67762,840.77306 L 41.808452,840.77306 Z M 126.30764,863.04755 C 144.73652,863.0462 153.20288,863.09342 154.21717,863.19607 C 157.24539,863.50241 159.90686,864.48639 162.6994,866.33205 C 164.14482,867.28742 166.44595,869.5638 167.36452,870.94712 C 168.34064,872.41707 169.47713,874.8232 170.0318,876.59387 L 170.51708,878.14267 L 170.56754,896.13341 L 170.61829,914.12375 L 171.01066,914.4015 C 171.22643,914.55421 172.31795,915.28097 173.43649,916.01662 C 176.21306,917.84249 178.39093,919.63917 180.48047,921.82775 C 183.07287,924.54299 184.77751,927.35199 185.57631,930.22506 C 186.07493,932.0184 186.02972,935.73269 185.48821,937.46731 C 184.61705,940.25778 183.07821,942.83707 180.96922,945.04109 L 179.56857,946.50493 L 180.37755,948.04757 C 181.58302,950.34718 181.77157,951.13166 181.87521,954.27669 C 181.9504,956.55618 181.90242,957.38825 181.59025,959.21606 C 180.48331,965.698 176.97578,972.16856 172.40647,976.15777 C 168.3868,979.66702 162.65414,982.32731 157.23123,983.20001 C 154.11455,983.70161 148.17387,983.91101 145.21267,983.62371 C 138.77468,982.99921 130.60071,980.44831 122.52093,976.54184 C 120.73098,975.67647 119.18409,974.96821 119.08339,974.96821 C 118.98264,974.96821 118.44335,975.32724 117.88478,975.76606 C 115.47302,977.6609 111.08623,980.11007 107.77255,981.41141 C 106.19961,982.02921 102.99079,982.85231 101.1196,983.11821 C 94.918057,983.99911 88.556466,981.45921 84.484969,976.47651 L 83.397304,975.14507 L 82.097842,975.14507 C 80.030867,975.14507 78.233143,974.71908 76.255915,973.76032 C 73.452411,972.40077 71.430874,970.46949 69.905879,967.69311 L 69.261014,966.51912 L 63.032554,966.42929 C 56.133115,966.32984 55.35169,966.23264 52.647792,965.13782 C 50.360882,964.21179 48.512294,963.01573 46.691874,961.28471 C 43.663332,958.40493 41.736577,954.70012 41.159755,950.64708 C 41.013821,949.62169 40.974224,939.57748 41.014721,913.86646 L 41.070309,878.4964 L 41.471364,877.00112 C 41.915643,875.34356 43.039004,872.84797 44.066766,871.2362 C 44.969304,869.82084 47.519407,867.23861 48.937385,866.30403 C 51.071642,864.89749 52.988251,864.05232 55.477397,863.41956 C 56.529207,863.15221 60.692215,863.12193 104.46491,863.06482 C 112.91472,863.05384 120.16471,863.04805 126.30764,863.04755 Z M 90.921347,898.29431 C 88.354806,898.28702 85.311292,898.82174 82.270214,899.83205 C 76.994014,901.58495 72.586365,905.52693 71.10241,909.81955 C 70.685942,911.02425 70.618671,911.5021 70.609136,913.33585 C 70.597094,915.64997 70.847126,916.90012 71.769706,919.13734 C 72.049359,919.81554 72.278184,920.43369 72.278184,920.51111 C 72.278184,920.5885 71.242595,921.33649 69.976716,922.17352 C 63.284294,926.59864 59.772545,930.64304 59.020247,934.79173 C 58.532052,937.48392 59.829355,940.46986 62.429469,942.63841 C 64.522477,944.38403 67.714812,946.24208 70.569769,947.37676 C 71.137828,947.60251 71.645117,947.89755 71.69686,948.0324 C 71.748545,948.16709 71.510289,948.89117 71.167671,949.64124 C 68.457389,955.57472 67.765549,961.54082 69.348384,965.32918 L 69.596382,965.92285 C 69.611759,965.93207 69.627852,965.94046 69.644072,965.94884 L 71.532396,965.94884 C 72.591132,965.94884 73.503206,965.90296 73.55929,965.84687 C 73.615385,965.79084 73.489272,965.37303 73.279151,964.91841 C 72.939234,964.18295 72.89869,963.79984 72.909565,961.43911 C 72.920452,959.08003 72.974919,958.61015 73.40315,957.1947 C 74.186769,954.60492 76.147742,950.77431 78.539397,947.16056 C 78.7955,946.77362 78.811732,946.65948 78.619896,946.59439 C 75.103426,945.40219 70.781727,943.40466 68.564314,941.94653 C 66.848984,940.81867 65.169293,939.1528 64.555114,937.9705 C 63.41791,935.78142 64.184812,933.24447 66.78579,930.59153 C 68.989994,928.34333 72.225909,926.18789 76.280101,924.26743 C 77.186241,923.83812 77.972469,923.4147 78.027167,923.32622 C 78.081852,923.23766 77.808594,922.69934 77.419949,922.12999 C 75.322587,919.05742 74.516134,915.79882 75.201727,913.16663 C 75.674509,911.35149 76.461765,910.10594 78.281722,908.29324 C 79.783352,906.7977 80.207186,906.49001 82.093352,905.52886 C 85.321046,903.88413 87.398909,903.294 91.063692,902.98084 C 92.926087,902.82168 93.455495,902.83609 94.488739,903.0741 C 98.970758,904.10637 102.78688,907.97833 104.73259,913.46852 C 104.99975,914.22228 105.27514,914.83909 105.34466,914.83909 C 105.41419,914.83909 105.93353,914.43445 106.49867,913.93999 C 107.9949,912.63064 109.14406,911.80376 110.75831,910.87413 C 113.87908,909.07686 116.41552,908.68547 118.39706,909.69594 C 119.59889,910.30888 121.00492,911.72098 121.76098,913.07444 C 122.35102,914.13054 123.38787,917.04729 123.38787,917.65069 C 123.38787,918.1844 123.61435,918.10952 124.00236,917.44757 C 124.59221,916.44155 128.36568,912.82881 129.84289,911.85574 C 132.58712,910.04825 135.84248,908.66534 138.68541,908.09976 C 140.58812,907.7213 146.37602,907.76733 148.48612,908.1775 C 154.63399,909.37274 161.31912,912.60885 168.32824,917.78236 C 169.16619,918.40086 169.90236,918.90663 169.96411,918.90663 C 170.02586,918.90663 170.07634,917.91378 170.07634,916.7001 L 170.07634,914.49367 L 169.14787,913.75314 C 167.82943,912.70142 163.58715,909.94392 161.48668,908.77335 C 154.45515,904.85469 146.19036,902.71819 140.45324,903.33593 C 135.20279,903.90125 131.25624,905.64057 127.57875,909.01028 C 126.94617,909.58993 126.30799,910.06409 126.16049,910.06409 C 125.99303,910.06409 125.77971,909.71564 125.59229,909.13573 C 125.18725,907.88214 124.43562,906.7286 123.38239,905.74338 C 122.40312,904.82742 121.46727,904.36869 119.92479,904.04851 C 117.32497,903.50878 113.22619,904.64561 109.01983,907.07328 L 107.41196,908.00098 L 107.08035,907.57369 C 106.89792,907.33862 106.19889,906.41849 105.52705,905.52886 C 102.40754,901.39835 98.072804,899.00027 92.615919,898.38648 C 92.080312,898.32627 91.513638,898.29599 90.921347,898.29431 Z M 170.80346,920.3215 C 170.67829,920.3215 170.60318,925.26345 170.56754,935.84002 L 170.51536,951.35865 L 170.03005,952.91098 C 169.48674,954.64887 168.24488,957.22909 167.24466,958.69796 C 166.33147,960.03909 164.04838,962.2784 162.65693,963.19763 C 160.54718,964.59134 158.59064,965.45228 156.10518,966.08076 C 155.06137,966.34468 151.26651,966.3804 114.84279,966.46972 L 74.729534,966.56776 L 75.228337,967.21023 C 75.856314,968.01934 77.23086,969.05773 78.379482,969.5901 C 79.883444,970.28716 81.299527,970.58414 83.56306,970.67746 L 85.739836,970.76729 L 86.41168,971.67402 C 88.849464,974.96359 92.112626,977.30803 95.298737,978.05924 C 96.573113,978.3596 98.726211,978.40723 99.985984,978.16277 C 100.45544,978.0717 101.47614,977.90419 102.25428,977.79053 C 106.54002,977.16428 112.17165,974.12073 117.35562,969.62842 C 117.78271,969.25833 118.23603,968.95526 118.36286,968.95526 C 118.48969,968.95526 119.54554,969.47605 120.70922,970.11239 C 128.04369,974.12292 137.66062,977.56136 145.42574,978.94932 C 147.51103,979.32214 148.25541,979.37581 150.35753,979.30656 C 151.71929,979.26146 153.54968,979.10388 154.42508,978.95624 C 163.17747,977.47984 169.62315,973.04853 173.92112,965.55259 C 175.90653,962.08989 177.26622,956.10248 176.80318,952.86191 C 176.44058,950.32404 175.65346,948.54823 174.33871,947.30254 C 174.03722,947.01681 173.79019,946.68496 173.79019,946.56537 C 173.79019,946.44578 174.65226,945.48589 175.70586,944.43214 C 178.69548,941.44201 179.88382,939.39952 180.46942,936.24383 C 180.80764,934.42107 180.60053,932.55763 179.82244,930.42574 C 178.72438,927.4169 175.94523,924.05323 172.2756,921.29137 C 171.56689,920.75799 170.90445,920.3215 170.80346,920.3215 Z M 116.50145,980.47675 C 118.41576,980.50772 120.30255,980.96981 122.08743,981.85521 C 124.41392,983.00941 125.73989,984.29941 126.80124,986.44121 C 127.53353,987.91921 127.54386,987.96651 127.54386,989.82711 L 127.54386,991.71381 L 126.70348,993.40731 C 126.02925,994.76531 125.64417,995.29881 124.75815,996.10131 C 123.42058,997.31291 120.96487,998.57071 119.23191,998.93231 C 117.69021,999.25401 115.001,999.24821 113.48427,998.92001 C 112.85203,998.78301 111.59191,998.31211 110.68402,997.87341 C 108.43577,996.78671 107.0141,995.42231 106.00235,993.38051 L 105.2607,991.88431 L 105.2607,989.82801 C 105.2607,987.79511 105.26875,987.75581 105.95187,986.36601 C 107.21807,983.79021 109.95549,981.67541 113.04215,980.88841 C 114.19414,980.59489 115.35283,980.45825 116.50145,980.47675 Z M 116.4458,985.31011 C 116.0311,985.30611 115.61459,985.33431 115.20267,985.39811 C 112.91451,985.75321 110.97368,986.97441 110.27816,988.49721 C 108.6977,991.95741 113.59175,995.38211 118.3549,994.14921 C 120.59681,993.56871 122.08323,992.41651 122.60069,990.85881 C 122.84785,990.11481 122.85795,989.85511 122.66909,989.06781 C 122.16203,986.95421 119.34882,985.33851 116.4458,985.31011 Z M 94.728116,989.26681 C 95.447142,989.26601 96.173592,989.33761 96.89591,989.48611 C 98.229519,989.76041 100.51651,990.89891 101.53583,991.79611 C 104.29883,994.22831 105.22146,998.16331 103.75095,1001.2445 C 102.08865,1004.7276 97.743531,1006.6734 92.929585,1006.091 C 89.589354,1005.6868 86.727204,1003.8016 85.490439,1001.1907 C 84.958792,1000.0681 84.922957,999.86981 84.922957,998.04711 C 84.922957,996.16481 84.944489,996.05701 85.584424,994.71661 C 87.181376,991.37211 90.84535,989.27061 94.728116,989.26681 Z M 94.559877,994.10291 C 92.788915,994.11901 91.124369,994.91101 90.242634,996.26691 C 88.976027,998.21461 89.777899,1000.1763 92.158284,1000.9534 C 93.893978,1001.5199 95.683251,1001.494 97.427165,1000.8777 C 98.482252,1000.5048 99.435852,999.47911 99.587005,998.55411 C 99.880674,996.75741 98.523651,995.00141 96.341196,994.35331 C 95.752241,994.17831 95.150241,994.09751 94.559877,994.10291 Z M 75.021091,996.72761 C 75.919369,996.72791 76.817324,996.78581 77.427187,996.90131 C 78.804527,997.16251 81.042523,998.26501 81.688161,999.00041 C 83.219727,1000.7447 83.582074,1003.3199 82.57485,1005.3013 C 81.866732,1006.6943 81.151389,1007.3474 79.450616,1008.1531 C 78.047474,1008.8179 78.042579,1008.8187 75.471489,1008.8622 C 74.055669,1008.8861 72.565065,1008.8353 72.158986,1008.7493 C 71.074276,1008.5195 69.489156,1007.7213 68.697977,1007.0066 C 68.316846,1006.6622 67.762225,1005.8994 67.465542,1005.3118 C 67.002065,1004.3936 66.926379,1004.0499 66.926379,1002.8676 C 66.926379,1001.6804 67.00315,1001.3356 67.485942,1000.3551 C 67.793683,999.73001 68.301377,999.00231 68.614382,998.73751 C 69.410538,998.06451 71.478379,997.11391 72.611808,996.90041 C 73.223909,996.78491 74.122824,996.72741 75.021091,996.72761 Z M 56.814114,1000.9872 C 58.456771,1000.9662 59.752539,1001.2399 60.970785,1001.8548 C 62.423857,1002.5883 63.002295,1003.1469 63.630455,1004.4231 C 64.141843,1005.4615 64.182699,1005.6704 64.106112,1006.8436 C 64.006599,1008.3671 63.608752,1009.2316 62.522067,1010.2849 C 60.844892,1011.9106 57.667127,1012.6608 54.834242,1012.1 C 53.771015,1011.8895 52.061434,1010.9751 51.513462,1010.324 C 50.620529,1009.2628 50.29293,1008.3947 50.209199,1006.8699 C 50.138812,1005.588 50.182369,1005.3194 50.618509,1004.3476 C 51.556247,1002.2581 53.327359,1001.1789 56.088068,1001.014 C 56.337695,1000.9991 56.57946,1000.9903 56.814114,1000.9872 Z M 75.019336,1001.592 C 73.613537,1001.592 73.105752,1001.6637 72.543453,1001.9419 C 71.331579,1002.5413 71.550914,1003.5328 72.985562,1003.9409 C 73.83652,1004.1827 76.026063,1004.1898 76.963986,1003.9535 C 78.471399,1003.574 78.739809,1002.5574 77.49523,1001.9419 C 76.93292,1001.6637 76.425089,1001.592 75.019336,1001.592 Z M 56.911872,1005.8077 C 56.161964,1005.7958 55.453662,1005.8932 55.177252,1006.1228 C 54.746365,1006.4804 54.980799,1007.048 55.65426,1007.2777 C 56.44372,1007.5469 56.842247,1007.5536 57.947404,1007.3164 C 58.99486,1007.0919 59.483055,1006.7103 59.183982,1006.3501 C 58.909547,1006.0194 57.876082,1005.8231 56.911872,1005.8077 Z"
         style="opacity:1;fill:#5385c1;fill-opacity:1;stroke:none;stroke-width:1;stroke-miterlimit:4;stroke-dasharray:none;stroke-dashoffset:0;stroke-opacity:1" />
    </g>
  </g>
</svg>
